<svg width="17" height="18" viewBox="0 0 17 18" fill="none" xmlns="http://www.w3.org/2000/svg">
<path d="M15.7857 3.21429H10.9286V1.28571C10.928 0.945 10.7999 0.617786 10.5722 0.376715C10.3451 0.136286 10.0361 0.000642857 9.71429 0H1.21429C0.8925 0.000642857 0.583465 0.135643 0.355786 0.376715C0.128107 0.617786 0.000607143 0.945 0 1.28571V16.7143C0.000607143 17.055 0.128715 17.3822 0.355786 17.6226C0.583465 17.8637 0.8925 17.9994 1.21429 18H15.7857C16.1075 17.9994 16.4159 17.8637 16.6436 17.6226C16.8713 17.3816 16.9994 17.055 17 16.7143V4.5C16.9994 4.15929 16.8713 3.83207 16.6436 3.591C16.4165 3.35057 16.1075 3.21493 15.7857 3.21429ZM6.67857 16.7143H4.25V13.5H6.67857V16.7143ZM9.71429 16.7143H7.89286V13.5C7.89225 13.1593 7.76414 12.8321 7.53646 12.5916C7.30939 12.3506 7.00036 12.2149 6.67857 12.2143H4.25C3.92821 12.2149 3.61918 12.3506 3.3915 12.5916C3.16443 12.8321 3.03632 13.1593 3.03571 13.5V16.7143H1.21429L1.21368 1.28571H9.71429V16.7143ZM15.7857 16.7143H10.9286V4.5H15.7857V16.7143ZM13.9643 9C13.9643 9.12729 13.9285 9.25136 13.8617 9.35743C13.7955 9.46286 13.7002 9.54514 13.5897 9.594C13.4786 9.64286 13.3565 9.65507 13.2388 9.63064C13.121 9.60557 13.0129 9.5445 12.9279 9.4545C12.8429 9.3645 12.7852 9.25007 12.7615 9.12536C12.7385 9.00064 12.75 8.87143 12.7961 8.75379C12.8423 8.63679 12.92 8.53586 13.0196 8.46579C13.1198 8.39507 13.2369 8.35714 13.3571 8.35714C13.518 8.35714 13.6729 8.42464 13.7864 8.5455C13.9005 8.66571 13.9643 8.82964 13.9643 9ZM12.75 6.42857C12.75 6.30129 12.7858 6.17721 12.8526 6.07114C12.9188 5.96571 13.0141 5.88343 13.1246 5.83457C13.2357 5.78571 13.3577 5.7735 13.4755 5.79793C13.5933 5.823 13.7014 5.88407 13.7864 5.97407C13.8714 6.06407 13.9291 6.1785 13.9528 6.30321C13.9758 6.42793 13.9643 6.55714 13.9181 6.67479C13.872 6.79179 13.7943 6.89271 13.6947 6.96279C13.5945 7.0335 13.4774 7.07143 13.3571 7.07143C13.1962 7.07143 13.0414 7.00393 12.9279 6.88307C12.8137 6.76286 12.75 6.59893 12.75 6.42857ZM7.89286 9C7.89286 9.12729 7.85704 9.25136 7.79025 9.35743C7.72407 9.46286 7.62875 9.54514 7.51825 9.594C7.40714 9.64286 7.28511 9.65507 7.16732 9.63064C7.04954 9.60557 6.94146 9.5445 6.85646 9.4545C6.77146 9.3645 6.71379 9.25007 6.69011 9.12536C6.66704 9.00064 6.67857 8.87143 6.72471 8.75379C6.77086 8.63679 6.84857 8.53586 6.94814 8.46579C7.04832 8.39507 7.1655 8.35714 7.28571 8.35714C7.44661 8.35714 7.60143 8.42464 7.71496 8.5455C7.82911 8.66571 7.89286 8.82964 7.89286 9ZM7.89286 6.42857C7.89286 6.55586 7.85704 6.67993 7.79025 6.786C7.72407 6.89143 7.62875 6.97371 7.51825 7.02257C7.40714 7.07143 7.28511 7.08364 7.16732 7.05921C7.04954 7.03414 6.94146 6.97307 6.85646 6.88307C6.77146 6.79307 6.71379 6.67864 6.69011 6.55393C6.66704 6.42921 6.67857 6.3 6.72471 6.18236C6.77086 6.06536 6.84857 5.96443 6.94814 5.89436C7.04832 5.82364 7.1655 5.78571 7.28571 5.78571C7.44661 5.78571 7.60143 5.85321 7.71496 5.97407C7.82911 6.09429 7.89286 6.25821 7.89286 6.42857ZM7.89286 3.85714C7.89286 3.98443 7.85704 4.1085 7.79025 4.21457C7.72407 4.32 7.62875 4.40229 7.51825 4.45114C7.40714 4.5 7.28511 4.51221 7.16732 4.48779C7.04954 4.46271 6.94146 4.40164 6.85646 4.31164C6.77146 4.22164 6.71379 4.10721 6.69011 3.9825C6.66704 3.85779 6.67857 3.72857 6.72471 3.61093C6.77086 3.49393 6.84857 3.393 6.94814 3.32293C7.04832 3.25221 7.1655 3.21429 7.28571 3.21429C7.44661 3.21429 7.60143 3.28179 7.71496 3.40264C7.82911 3.52286 7.89286 3.68679 7.89286 3.85714ZM4.25 9C4.25 9.12729 4.21418 9.25136 4.14739 9.35743C4.08121 9.46286 3.98589 9.54514 3.87539 9.594C3.76429 9.64286 3.64225 9.65507 3.52446 9.63064C3.40668 9.60557 3.29861 9.5445 3.21361 9.4545C3.12861 9.3645 3.07093 9.25007 3.04725 9.12536C3.02418 9.00064 3.03571 8.87143 3.08186 8.75379C3.128 8.63679 3.20571 8.53586 3.30529 8.46579C3.40546 8.39507 3.52264 8.35714 3.64286 8.35714C3.80375 8.35714 3.95857 8.42464 4.07211 8.5455C4.18625 8.66571 4.25 8.82964 4.25 9ZM4.25 6.42857C4.25 6.55586 4.21418 6.67993 4.14739 6.786C4.08121 6.89143 3.98589 6.97371 3.87539 7.02257C3.76429 7.07143 3.64225 7.08364 3.52446 7.05921C3.40668 7.03414 3.29861 6.97307 3.21361 6.88307C3.12861 6.79307 3.07093 6.67864 3.04725 6.55393C3.02418 6.42921 3.03571 6.3 3.08186 6.18236C3.128 6.06536 3.20571 5.96443 3.30529 5.89436C3.40546 5.82364 3.52264 5.78571 3.64286 5.78571C3.80375 5.78571 3.95857 5.85321 4.07211 5.97407C4.18625 6.09429 4.25 6.25821 4.25 6.42857ZM4.25 3.85714C4.25 3.98443 4.21418 4.1085 4.14739 4.21457C4.08121 4.32 3.98589 4.40229 3.87539 4.45114C3.76429 4.5 3.64225 4.51221 3.52446 4.48779C3.40668 4.46271 3.29861 4.40164 3.21361 4.31164C3.12861 4.22164 3.07093 4.10721 3.04725 3.9825C3.02418 3.85779 3.03571 3.72857 3.08186 3.61093C3.128 3.49393 3.20571 3.393 3.30529 3.32293C3.40546 3.25221 3.52264 3.21429 3.64286 3.21429C3.80375 3.21429 3.95857 3.28179 4.07211 3.40264C4.18625 3.52286 4.25 3.68679 4.25 3.85714Z" fill="#3C3C3C"/>
</svg>
