<svg width="586" height="448" viewBox="0 0 586 448" fill="none" xmlns="http://www.w3.org/2000/svg">
<g filter="url(#filter0_d_1370_2)">
<path d="M575.633 85.5856L235.375 433.472C226.81 442.176 212.949 442.176 204.385 433.472L197.543 426.477L190.119 418.887L157.988 386.039L157.532 385.339L10.3855 233.74C1.87148 225.035 1.87148 210.813 10.3855 202.109L56.7568 154.754C65.3216 145.972 79.1316 145.972 87.6963 154.754L220.044 291.069L498.272 6.54764C506.837 -2.18255 520.697 -2.18255 529.211 6.54764L575.633 54.0067C584.122 62.6851 584.122 76.8813 575.633 85.5856Z" fill="#1ED75A"/>
</g>
<path d="M446.47 349.03C458.913 298.788 428.271 247.972 378.03 235.53C327.788 223.087 276.973 253.729 264.53 303.97C252.087 354.212 282.729 405.027 332.97 417.47C383.212 429.913 434.027 399.271 446.47 349.03Z" fill="#A6A6A6"/>
<path d="M419.479 285.929H291.543V367.064H419.479V285.929Z" fill="white"/>
<path d="M419.479 285.929C414.311 290.867 409.047 295.536 403.84 300.454C398.634 305.373 393.331 310.06 388.048 314.691C382.764 319.321 377 324.47 371.467 329.311L370.968 329.772L356.232 342.568L355.501 343.164L354.791 342.568L340.074 329.753L339.555 329.311C334.003 324.47 328.469 319.705 322.955 314.652C317.442 309.599 312.427 305.219 307.182 300.454C301.937 295.689 296.711 290.848 291.543 285.929C297.038 290.156 302.436 294.613 307.874 298.956C313.311 303.298 318.709 307.793 324.089 312.289C330.083 317.246 336.078 322.299 342.053 327.39C346.529 331.233 351.006 335.075 355.501 338.802C359.959 334.96 364.435 331.117 368.95 327.39C374.932 322.267 380.92 317.227 386.914 312.27C392.293 307.812 397.692 303.355 403.11 298.975C408.528 294.594 413.984 290.156 419.479 285.929Z" fill="#DBDBDB"/>
<path d="M342.265 329.234L342.111 329.369L340.19 331.079C336.982 333.787 333.696 336.381 330.353 338.898C326.28 342.01 322.111 344.988 317.923 347.947C313.735 350.906 309.489 353.711 305.166 356.516C300.843 359.321 296.482 361.991 291.967 364.47C295.809 361.069 299.882 357.899 303.955 354.864C308.028 351.828 312.217 348.773 316.386 345.795C320.555 342.817 324.839 340.032 329.162 337.227C332.601 335.017 336.098 332.846 339.671 330.81L342.169 329.407L342.265 329.234Z" fill="#DBDBDB"/>
<path d="M419.115 364.47C414.6 361.991 410.22 359.282 405.916 356.516C401.612 353.749 397.366 350.867 393.14 347.947C388.913 345.027 384.782 342.01 380.709 338.898C377.386 336.381 374.1 333.807 370.911 331.098L368.874 329.369L368.721 329.234H368.913L371.41 330.656C374.984 332.692 378.461 334.863 381.92 337.073C386.243 339.839 390.469 342.721 394.677 345.642C398.884 348.562 403.034 351.597 407.107 354.71C411.18 357.822 415.273 361.069 419.115 364.47Z" fill="#DBDBDB"/>
<path d="M412.177 305.492C422.956 301.795 428.698 290.059 425.001 279.28C421.304 268.5 409.568 262.759 398.789 266.456C388.009 270.153 382.268 281.888 385.965 292.668C389.662 303.448 401.397 309.189 412.177 305.492Z" fill="#FF0909"/>
<path d="M403.208 290.464V273.672C403.213 273.067 403.456 272.488 403.883 272.061C404.311 271.633 404.889 271.391 405.494 271.385C405.792 271.388 406.086 271.449 406.361 271.565C406.635 271.682 406.883 271.851 407.092 272.063C407.301 272.275 407.465 272.527 407.577 272.803C407.689 273.079 407.745 273.374 407.742 273.672V290.464C407.747 290.761 407.693 291.057 407.582 291.333C407.471 291.609 407.306 291.86 407.096 292.071C406.887 292.283 406.637 292.45 406.362 292.563C406.087 292.676 405.792 292.733 405.494 292.731C405.195 292.733 404.898 292.676 404.621 292.564C404.344 292.451 404.091 292.284 403.879 292.073C403.666 291.863 403.498 291.612 403.382 291.336C403.267 291.059 403.208 290.763 403.208 290.464ZM405.494 300.473C405.194 300.473 404.897 300.414 404.619 300.299C404.342 300.184 404.09 300.016 403.878 299.804C403.665 299.591 403.497 299.339 403.382 299.062C403.267 298.784 403.208 298.487 403.208 298.187V297.361C403.208 296.753 403.448 296.169 403.877 295.737C404.305 295.306 404.886 295.06 405.494 295.055C405.792 295.058 406.086 295.119 406.361 295.235C406.635 295.351 406.883 295.521 407.092 295.733C407.301 295.945 407.465 296.197 407.577 296.473C407.689 296.749 407.745 297.044 407.742 297.342V298.168C407.75 298.468 407.697 298.766 407.588 299.046C407.478 299.325 407.314 299.58 407.105 299.795C406.895 300.009 406.645 300.18 406.368 300.297C406.092 300.413 405.794 300.473 405.494 300.473Z" fill="white"/>
<defs>
<filter id="filter0_d_1370_2" x="0" y="0" width="586" height="448" filterUnits="userSpaceOnUse" color-interpolation-filters="sRGB">
<feFlood flood-opacity="0" result="BackgroundImageFix"/>
<feColorMatrix in="SourceAlpha" type="matrix" values="0 0 0 0 0 0 0 0 0 0 0 0 0 0 0 0 0 0 127 0" result="hardAlpha"/>
<feOffset dy="4"/>
<feGaussianBlur stdDeviation="2"/>
<feComposite in2="hardAlpha" operator="out"/>
<feColorMatrix type="matrix" values="0 0 0 0 0 0 0 0 0 0 0 0 0 0 0 0 0 0 0.25 0"/>
<feBlend mode="normal" in2="BackgroundImageFix" result="effect1_dropShadow_1370_2"/>
<feBlend mode="normal" in="SourceGraphic" in2="effect1_dropShadow_1370_2" result="shape"/>
</filter>
</defs>
</svg>
