<svg width="34" height="34" viewBox="0 0 34 34" fill="none" xmlns="http://www.w3.org/2000/svg">
<path d="M25.9269 31.4675C24.4104 32.4082 22.7533 33.1005 21.0183 33.5182C16.8618 34.5294 12.4768 33.9363 8.73823 31.8574C4.99962 29.7785 2.1822 26.3665 0.848007 22.3021C-0.486187 18.2378 -0.239064 13.8198 1.54007 9.92961C3.31921 6.0394 6.49956 2.96291 10.4467 1.31389C14.3938 -0.335134 18.8175 -0.43547 22.8354 1.0329C26.8532 2.50127 30.1698 5.4304 32.1235 9.23595C34.0771 13.0415 34.5243 17.4437 33.3758 21.5644C32.2272 25.6851 29.5674 29.2213 25.9269 31.4675Z" fill="#002221"/>
<path d="M22.0902 14.9833C22.0902 16.0087 21.7862 17.011 21.2168 17.8636C20.6474 18.7163 19.8381 19.3811 18.891 19.7739C17.9439 20.1668 16.9017 20.2701 15.8959 20.0709C14.8901 19.8717 13.966 19.3788 13.2402 18.6545C12.5144 17.9303 12.0196 17.0072 11.8183 16.0018C11.6169 14.9965 11.7181 13.954 12.109 13.0061C12.4998 12.0583 13.1629 11.2475 14.0143 10.6763C14.8658 10.1051 15.8675 9.79906 16.8928 9.7969C17.575 9.79474 18.2509 9.92734 18.8818 10.1871C19.5126 10.4468 20.0859 10.8286 20.5688 11.3105C21.0517 11.7924 21.4347 12.3649 21.6958 12.9952C21.9569 13.6255 22.0909 14.3011 22.0902 14.9833Z" fill="white"/>
<path d="M25.9323 29.328V31.4588C24.4181 32.3987 22.7635 33.0905 21.0312 33.5078C18.8432 34.0485 16.5692 34.1452 14.3433 33.7924C12.1173 33.4395 9.9845 32.6442 8.07059 31.4533V29.328C8.04118 28.1361 8.25036 26.9504 8.68581 25.8406C9.12127 24.7309 9.7742 23.7195 10.6062 22.8661C11.4381 22.0127 12.4323 21.3346 13.5302 20.8715C14.628 20.4085 15.8073 20.1699 16.9987 20.1699C18.1901 20.1699 19.3694 20.4085 20.4673 20.8715C21.5651 21.3346 22.5593 22.0127 23.3913 22.8661C24.2232 23.7195 24.8761 24.7309 25.3116 25.8406C25.7471 26.9504 25.9562 28.1361 25.9268 29.328H25.9323Z" fill="white"/>
</svg>
