<svg width="39" height="39" viewBox="0 0 39 39" fill="none" xmlns="http://www.w3.org/2000/svg">
<path fill-rule="evenodd" clip-rule="evenodd" d="M35.9006 15.328C35.7941 15.3212 35.6781 15.3212 35.558 15.3213H35.528H30.8131C26.9269 15.3213 23.6016 18.4043 23.6016 22.4249C23.6016 26.4454 26.9269 29.5285 30.8131 29.5285H35.528H35.558C35.6781 29.5285 35.7941 29.5285 35.9006 29.5217C37.4791 29.4213 38.8751 28.1764 38.9925 26.4374C39.0003 26.3233 39.0001 26.2004 39.0001 26.0866V26.0556V18.7942V18.7631C39.0001 18.6493 39.0003 18.5264 38.9925 18.4123C38.8751 16.6735 37.4791 15.4284 35.9006 15.328ZM30.3952 24.3191C31.3955 24.3191 32.2067 23.471 32.2067 22.4249C32.2067 21.3787 31.3955 20.5306 30.3952 20.5306C29.3946 20.5306 28.5834 21.3787 28.5834 22.4249C28.5834 23.471 29.3946 24.3191 30.3952 24.3191Z" fill="#002221"/>
<path fill-rule="evenodd" clip-rule="evenodd" d="M35.5565 32.3701C35.8367 32.3629 36.0489 32.6244 35.9728 32.8964C35.5955 34.246 34.9967 35.3961 34.0357 36.3647C32.6292 37.7823 30.8457 38.4114 28.642 38.7099C26.5009 39.0001 23.765 39.0001 20.3108 39.0001H16.3398C12.8857 39.0001 10.1498 39.0001 8.00859 38.7099C5.805 38.4114 4.02143 37.7823 2.61487 36.3647C1.2083 34.947 0.584084 33.1495 0.287821 30.9287C-5.77368e-05 28.7706 -1.86e-05 26.0133 9.00043e-07 22.532V22.3182C-3.81e-05 18.8369 -5.77368e-05 16.0796 0.287821 13.9216C0.584084 11.7007 1.2083 9.90313 2.61487 8.4855C4.02143 7.06789 5.805 6.43876 8.00859 6.14018C10.1498 5.85004 12.8856 5.85008 16.3398 5.8501H20.3108C23.765 5.85006 26.5009 5.85004 28.642 6.14018C30.8457 6.43876 32.6292 7.06789 34.0357 8.4855C34.9967 9.45403 35.5955 10.6043 35.9728 11.9538C36.0489 12.2258 35.8367 12.4874 35.5565 12.4801L30.8129 12.4801C25.4812 12.4801 20.7821 16.7251 20.7821 22.4251C20.7821 28.1251 25.4812 32.3701 30.8129 32.3701H35.5565ZM7.0482 13.4273C6.26968 13.4273 5.63856 14.0633 5.63856 14.848C5.63856 15.6327 6.26968 16.2688 7.0482 16.2688H14.5663C15.3448 16.2688 15.976 15.6327 15.976 14.848C15.976 14.0633 15.3448 13.4273 14.5663 13.4273H7.0482Z" fill="#002221"/>
<path d="M11.2646 3.94756L15.0843 1.13345C17.1356 -0.377817 19.9147 -0.377817 21.9659 1.13345L25.8056 3.96234C24.2002 3.8999 22.4074 3.89996 20.4418 3.9H16.2091C14.413 3.89996 12.7611 3.89992 11.2646 3.94756Z" fill="#002221"/>
</svg>
