<svg width="30" height="30" viewBox="0 0 30 30" fill="none" xmlns="http://www.w3.org/2000/svg">
<circle cx="15" cy="15" r="15" fill="#002221"/>
<path fill-rule="evenodd" clip-rule="evenodd" d="M11.1517 7.66037C10.8455 6.95926 10.523 6.94506 10.2306 6.93263C9.99166 6.92198 9.7191 6.92287 9.44655 6.92287C9.174 6.92287 8.73067 7.02848 8.35548 7.45004C7.98029 7.87159 6.92285 8.88954 6.92285 10.9609C6.92285 13.0323 8.38912 15.0345 8.59353 15.3149C8.79794 15.5954 11.4243 19.9822 15.5833 21.6702C19.0394 23.0724 19.7432 22.7938 20.4936 22.7237C21.2439 22.6536 22.9146 21.7057 23.2553 20.7224C23.596 19.7391 23.596 18.8968 23.4942 18.7211C23.3916 18.5454 23.119 18.4407 22.7102 18.2294C22.3014 18.0182 20.2891 17.0003 19.9139 16.86C19.5388 16.7198 19.2662 16.6497 18.9928 17.0713C18.7202 17.4919 17.9362 18.4407 17.6973 18.7211C17.4584 19.0024 17.2195 19.0379 16.8106 18.8267C16.4018 18.6155 15.0839 18.1718 13.5202 16.7376C12.304 15.622 11.4829 14.2437 11.244 13.8222C11.0051 13.4015 11.2181 13.1734 11.4234 12.9631C11.6071 12.7741 11.8322 12.4714 12.0375 12.2256C12.2419 11.9798 12.3101 11.804 12.4464 11.5236C12.5826 11.2423 12.5145 10.9964 12.4119 10.7861C12.3109 10.5749 11.5157 8.49283 11.1517 7.66037Z" fill="white"/>
</svg>
