<svg width="34" height="36" viewBox="0 0 34 36" fill="none" xmlns="http://www.w3.org/2000/svg">
<path d="M0.847656 34.2601L3.12994 25.6869C1.72194 23.1781 0.98151 20.3311 0.982357 17.4152C0.986593 8.29282 8.20113 0.871094 17.0677 0.871094C21.3705 0.872837 25.4081 2.5962 28.4452 5.72302C31.4815 8.85071 33.1538 13.007 33.1521 17.4283C33.1487 26.5507 25.9325 33.9733 17.0677 33.9733H17.0609C14.3694 33.9725 11.7237 33.2777 9.37447 31.9588L0.847656 34.2601Z" fill="white"/>
<path d="M0.847533 34.6963C0.735706 34.6963 0.627268 34.651 0.546786 34.5673C0.44089 34.4566 0.399378 34.2953 0.439195 34.1463L2.67489 25.7465C1.28891 23.2133 0.5578 20.3366 0.559494 17.4164C0.562883 8.05253 7.96804 0.435547 17.0675 0.435547C21.4813 0.43729 25.6282 2.20599 28.745 5.41562C31.8617 8.62612 33.5773 12.8923 33.5756 17.4286C33.5722 26.7916 26.1662 34.4095 17.0675 34.4095C14.3659 34.4086 11.6931 33.7226 9.32097 32.4246L0.955124 34.6815C0.919543 34.6919 0.883962 34.6963 0.847533 34.6963Z" fill="white"/>
<path d="M17.0675 0.871708C21.3703 0.873452 25.408 2.59682 28.4451 5.72364C31.4813 8.85133 33.1537 13.0076 33.152 17.4289C33.1486 26.5514 25.9324 33.974 17.0675 33.974H17.0607C14.3693 33.9731 11.7235 33.2783 9.37433 31.9594L0.847523 34.2608L3.12981 25.6875C1.72181 23.1787 0.981376 20.3317 0.982224 17.4159C0.986459 8.29343 8.201 0.871708 17.0675 0.871708ZM17.0675 0C7.73505 0 0.139285 7.81225 0.135049 17.4159C0.134202 20.3509 0.8543 23.2432 2.21995 25.8034L0.0299997 34.0315C-0.0496347 34.3322 0.031694 34.653 0.245182 34.8744C0.406145 35.0418 0.623869 35.1333 0.847523 35.1333C0.919533 35.1333 0.991543 35.1237 1.06271 35.1046L9.26928 32.8904C11.6651 34.1701 14.3506 34.8457 17.0607 34.8465C26.4 34.8465 33.9958 27.0334 34 17.4298C34.0017 12.7758 32.2421 8.39978 29.0457 5.10821C25.8476 1.81577 21.594 0.00174342 17.0675 0Z" fill="#CFD8DC"/>
<path d="M26.5235 7.69854C23.999 5.0991 20.6433 3.66689 17.0716 3.66602C9.6978 3.66602 3.70066 9.83422 3.69727 17.4163C3.69642 20.0149 4.40296 22.5446 5.7415 24.7352L6.06004 25.2556L4.70879 30.3298L9.76897 28.9647L10.2578 29.2629C12.3096 30.5164 14.6631 31.1789 17.0623 31.1797H17.0674C24.4361 31.1797 30.4332 25.0107 30.4358 17.4277C30.4366 13.7534 29.0481 10.298 26.5235 7.69854Z" fill="#40C351"/>
<path fill-rule="evenodd" clip-rule="evenodd" d="M13.0468 10.4998C12.746 9.81115 12.4292 9.7972 12.142 9.785C11.9073 9.77454 11.6396 9.77541 11.3719 9.77541C11.1042 9.77541 10.6687 9.87914 10.3002 10.2932C9.9317 10.7073 8.89307 11.7071 8.89307 13.7417C8.89307 15.7762 10.3333 17.7428 10.534 18.0183C10.7348 18.2937 13.3145 22.6026 17.3995 24.2606C20.7942 25.6379 21.4855 25.3642 22.2225 25.2953C22.9596 25.2264 24.6005 24.2955 24.9352 23.3296C25.2698 22.3637 25.2698 21.5365 25.1698 21.3639C25.069 21.1913 24.8013 21.0884 24.3997 20.881C23.9982 20.6735 22.0217 19.6737 21.6532 19.5359C21.2847 19.3982 21.017 19.3293 20.7484 19.7434C20.4807 20.1566 19.7106 21.0884 19.476 21.3639C19.2413 21.6402 19.0066 21.6751 18.6051 21.4676C18.2035 21.2602 16.909 20.8243 15.3731 19.4156C14.1786 18.3199 13.3721 16.9661 13.1374 16.5521C12.9027 16.1389 13.112 15.9149 13.3136 15.7083C13.4941 15.5226 13.7152 15.2253 13.9168 14.9839C14.1176 14.7424 14.1845 14.5698 14.3184 14.2943C14.4522 14.018 14.3853 13.7765 14.2845 13.57C14.1854 13.3625 13.4043 11.3175 13.0468 10.4998Z" fill="white"/>
</svg>
