<svg width="34" height="34" viewBox="0 0 34 34" fill="none" xmlns="http://www.w3.org/2000/svg">
<path d="M25.9269 31.4675C24.4104 32.4082 22.7533 33.1005 21.0183 33.5182C16.8618 34.5294 12.4768 33.9363 8.73823 31.8574C4.99962 29.7785 2.1822 26.3665 0.848007 22.3021C-0.486187 18.2378 -0.239064 13.8198 1.54007 9.92961C3.31921 6.0394 6.49956 2.96291 10.4467 1.31389C14.3938 -0.335134 18.8175 -0.43547 22.8354 1.0329C26.8532 2.50127 30.1698 5.4304 32.1235 9.23595C34.0771 13.0415 34.5243 17.4437 33.3758 21.5644C32.2272 25.6851 29.5674 29.2213 25.9269 31.4675Z" fill="#002221"/>
<path fill-rule="evenodd" clip-rule="evenodd" d="M28 14.8923L17 7L6 14.8923L6.52381 16.3956H7.39683V26H26.6032V16.3956H27.4762L28 14.8923ZM9.14286 24.3297V14.7253L17 9.08791L24.8571 14.7253V24.3297H20.4922V19.4114L19.6192 18.5763H14.381L13.508 19.4114V24.3297H9.14286ZM15.2541 24.3297H18.7461V20.2466H15.2541V24.3297Z" fill="white"/>
</svg>
