<svg width="315" height="364" viewBox="0 0 315 364" fill="none" xmlns="http://www.w3.org/2000/svg">
<path d="M131.076 12.0417L44.332 44.5492C24.3407 52.0242 8 75.6659 8 97.0479V226.208C8 246.721 21.5597 273.666 38.0742 286.009L112.824 341.812C137.335 360.239 177.665 360.239 202.176 341.812L276.926 286.009C293.441 273.666 307 246.721 307 226.208V97.0479C307 75.6659 290.659 52.0242 270.668 44.5492L183.923 12.0417C169.147 6.65276 145.505 6.65276 131.076 12.0417Z" stroke="#002221" stroke-width="15" stroke-linecap="round" stroke-linejoin="round"/>
<path d="M157.324 163.104C156.629 163.104 155.759 163.104 155.064 163.104C138.723 162.582 125.686 149.023 125.686 132.509C125.686 115.646 139.419 101.913 156.281 101.913C173.143 101.913 186.876 115.646 186.876 132.509C186.703 149.197 173.665 162.582 157.324 163.104Z" stroke="#002221" stroke-width="15" stroke-linecap="round" stroke-linejoin="round"/>
<path d="M122.73 211.78C106.042 222.906 106.042 241.159 122.73 252.284C141.678 264.975 172.795 264.975 191.743 252.284C208.432 241.159 208.432 222.906 191.743 211.78C172.969 199.09 141.852 199.09 122.73 211.78Z" stroke="#002221" stroke-width="15" stroke-linecap="round" stroke-linejoin="round"/>
</svg>
