<svg width="208" height="49" viewBox="0 0 208 49" fill="none" xmlns="http://www.w3.org/2000/svg">
<path d="M69.1331 26.7822V34.1544H59.2838V26.7822H56.832V43.9358H59.2838V36.2922H69.1331V43.9358H71.5848V26.7822H69.1331ZM81.9431 44.0801C85.8371 44.0801 88.679 41.3144 88.679 37.4375C88.679 33.569 85.8371 30.8204 81.9431 30.8204C78.0492 30.8204 75.1818 33.5605 75.1818 37.4375C75.1818 41.306 78.0492 44.0801 81.9431 44.0801ZM81.9431 42.0186C79.4405 42.0186 77.5572 40.2031 77.5572 37.4375C77.5572 34.6719 79.4405 32.8819 81.9431 32.8819C84.4458 32.8819 86.3037 34.6719 86.3037 37.4375C86.3037 40.2031 84.4458 42.0186 81.9431 42.0186ZM108.183 30.8204C105.977 30.8204 104.161 31.7535 103.186 33.2212C102.329 31.6008 100.658 30.8204 98.6811 30.8204C96.7214 30.8204 95.1265 31.5584 94.2018 32.8819V30.9476H91.9452V43.9358H94.2951V37.2508C94.2951 34.4343 95.8391 32.9412 98.189 32.9412C100.318 32.9412 101.548 34.1883 101.548 36.7418V43.9443H103.898V37.2593C103.898 34.4428 105.442 32.9497 107.792 32.9497C109.922 32.9497 111.152 34.1968 111.152 36.7503V43.9528H113.502V36.4789C113.502 32.6528 111.347 30.8458 108.183 30.8458V30.8204Z" fill="#002221"/>
<path d="M129.646 37.5141C129.646 33.5184 126.974 30.8291 123.224 30.8291C119.475 30.8291 116.709 33.5947 116.709 37.4462C116.709 41.3147 119.5 44.0888 123.691 44.0888C125.846 44.0888 127.636 43.3507 128.815 41.9849L127.517 40.4663C126.558 41.5183 125.286 42.0358 123.767 42.0358C121.197 42.0358 119.356 40.5172 119.059 38.2352H129.595C129.621 38.0146 129.646 37.7177 129.646 37.5226V37.5141ZM123.224 32.8142C125.506 32.8142 127.144 34.3582 127.39 36.5385H119.059C119.305 34.3328 120.968 32.8142 123.224 32.8142Z" fill="#002221"/>
<path d="M141.854 30.9476L137.375 41.3399L132.844 30.9476H130.393L136.128 43.9104L135.712 44.8181C135.076 46.3112 134.363 46.8287 133.235 46.8287C132.352 46.8287 131.546 46.4894 130.91 45.8701L129.909 47.6346C130.715 48.4151 131.988 48.8308 133.243 48.8308C135.228 48.8308 136.721 47.974 137.875 45.2253L144.17 30.9391H141.871L141.854 30.9476ZM165.599 26.7822V34.1544H155.75V26.7822H153.298V43.9358H155.75V36.2922H165.599V43.9358H168.051V26.7822H165.599ZM178.409 44.0801C182.303 44.0801 185.145 41.3144 185.145 37.4375C185.145 33.569 182.303 30.8204 178.409 30.8204C174.515 30.8204 171.648 33.5605 171.648 37.4375C171.648 41.306 174.515 44.0801 178.409 44.0801ZM178.409 42.0186C175.907 42.0186 174.023 40.2031 174.023 37.4375C174.023 34.6719 175.907 32.8819 178.409 32.8819C180.912 32.8819 182.77 34.6719 182.77 37.4375C182.77 40.2031 180.912 42.0186 178.409 42.0186ZM192.127 44.0801C195.58 44.0801 197.735 42.587 197.735 40.237C197.735 35.1894 189.506 37.692 189.506 34.6295C189.506 33.6029 190.507 32.8394 192.568 32.8394C193.841 32.8394 195.139 33.1109 196.318 33.8659L197.319 32.0081C196.191 31.27 194.282 30.8288 192.594 30.8288C189.26 30.8288 187.181 32.3983 187.181 34.7228C187.181 39.8892 195.385 37.3696 195.385 40.2879C195.385 41.3908 194.477 42.0525 192.297 42.0525C190.609 42.0525 188.844 41.4926 187.741 40.7036L186.757 42.5615C187.834 43.4183 189.964 44.0801 192.119 44.0801H192.127ZM207.245 41.4841C206.753 41.8743 206.091 42.0949 205.404 42.0949C204.106 42.0949 203.368 41.3144 203.368 39.9147V32.8819H207.092V30.9476H203.368V28.1057H201.018V30.9476H198.812V32.8819H201.018V40.008C201.018 42.6294 202.511 44.0716 205.132 44.0716C206.184 44.0716 207.262 43.7746 207.974 43.1638L207.236 41.4756L207.245 41.4841Z" fill="#002221"/>
<path fill-rule="evenodd" clip-rule="evenodd" d="M32.8324 10.2311C32.3064 10.4092 32.9172 24.653 32.6033 26.2564C31.3732 26.5448 21.1676 26.2903 18.3511 26.2733C17.5366 26.2649 14.4911 26.3412 13.8294 26.1376L13.7785 10.0444C13.2525 10.1547 11.8612 10.9522 11.3946 11.2236C10.6056 11.6902 10.9365 12.81 10.9365 13.5396C10.9365 19.0454 10.682 48.2371 11.0977 48.8479L13.77 48.8309L13.7869 27.8937L32.51 27.97L32.5863 48.8394H35.1823C35.6149 48.1862 35.335 19.2745 35.335 13.7602C35.335 13.073 35.6743 11.8514 35.0635 11.3594C34.809 11.1558 33.1887 10.3159 32.8324 10.2396V10.2311Z" fill="#002221"/>
<path fill-rule="evenodd" clip-rule="evenodd" d="M21.9225 0.687162L21.9141 22.074L24.5015 22.1249L24.4591 0.619294L23.2799 0L21.9225 0.687162Z" fill="#002221"/>
<path fill-rule="evenodd" clip-rule="evenodd" d="M0.145465 48.7548L2.8517 48.7632L2.84321 32.967C2.86018 31.5163 2.94501 32.1611 2.56326 31.9829C2.27482 32.2289 1.07865 32.7295 0.501771 33.1282C-0.168424 33.5863 0.128498 34.5958 0.128498 35.266C0.128498 39.1854 -0.176908 45.302 0.153948 48.7378L0.145465 48.7548Z" fill="#002221"/>
<path fill-rule="evenodd" clip-rule="evenodd" d="M46.16 48.7547C46.4994 45.2765 46.1855 39.1344 46.1855 35.1726C46.1855 32.0253 45.6086 33.5692 43.7507 31.9913C43.4029 32.161 43.4453 31.6435 43.4623 32.3222L43.4538 48.7717L46.1516 48.7632L46.16 48.7547Z" fill="#002221"/>
<path fill-rule="evenodd" clip-rule="evenodd" d="M21.8545 48.7715H24.5098V31.8555L21.9139 31.9064L21.8545 48.7715Z" fill="#002221"/>
</svg>
