<svg width="208" height="49" viewBox="0 0 208 49" fill="none" xmlns="http://www.w3.org/2000/svg">
<path d="M69.1331 26.7825V34.1546H59.2838V26.7825H56.832V43.9361H59.2838V36.2925H69.1331V43.9361H71.5848V26.7825H69.1331ZM81.9431 44.0803C85.8371 44.0803 88.679 41.3147 88.679 37.4377C88.679 33.5693 85.8371 30.8206 81.9431 30.8206C78.0492 30.8206 75.1818 33.5608 75.1818 37.4377C75.1818 41.3062 78.0492 44.0803 81.9431 44.0803ZM81.9431 42.0188C79.4405 42.0188 77.5572 40.2033 77.5572 37.4377C77.5572 34.6721 79.4405 32.8821 81.9431 32.8821C84.4458 32.8821 86.3037 34.6721 86.3037 37.4377C86.3037 40.2033 84.4458 42.0188 81.9431 42.0188ZM108.183 30.8206C105.977 30.8206 104.161 31.7538 103.186 33.2214C102.329 31.6011 100.658 30.8206 98.6811 30.8206C96.7214 30.8206 95.1265 31.5587 94.2018 32.8821V30.9479H91.9452V43.9361H94.2951V37.2511C94.2951 34.4346 95.8391 32.9415 98.189 32.9415C100.318 32.9415 101.548 34.1886 101.548 36.7421V43.9446H103.898V37.2596C103.898 34.4431 105.442 32.95 107.792 32.95C109.922 32.95 111.152 34.197 111.152 36.7506V43.953H113.502V36.4791C113.502 32.653 111.347 30.8461 108.183 30.8461V30.8206Z" fill="white"/>
<path d="M129.646 37.5141C129.646 33.5184 126.974 30.8291 123.224 30.8291C119.474 30.8291 116.708 33.5947 116.708 37.4462C116.708 41.3147 119.5 44.0888 123.69 44.0888C125.845 44.0888 127.635 43.3507 128.814 41.9849L127.516 40.4663C126.558 41.5183 125.285 42.0358 123.767 42.0358C121.196 42.0358 119.355 40.5172 119.058 38.2352H129.595C129.62 38.0146 129.646 37.7177 129.646 37.5226V37.5141ZM123.224 32.8142C125.506 32.8142 127.143 34.3582 127.389 36.5385H119.058C119.304 34.3328 120.967 32.8142 123.224 32.8142Z" fill="white"/>
<path d="M141.853 30.9479L137.374 41.3401L132.844 30.9479H130.392L136.127 43.9106L135.711 44.8184C135.075 46.3115 134.363 46.8289 133.234 46.8289C132.352 46.8289 131.546 46.4896 130.91 45.8703L129.909 47.6349C130.715 48.4154 131.987 48.831 133.243 48.831C135.228 48.831 136.721 47.9742 137.875 45.2256L144.169 30.9394H141.87L141.853 30.9479ZM165.599 26.7825V34.1546H155.749V26.7825H153.298V43.9361H155.749V36.2925H165.599V43.9361H168.05V26.7825H165.599ZM178.409 44.0803C182.303 44.0803 185.145 41.3147 185.145 37.4377C185.145 33.5693 182.303 30.8206 178.409 30.8206C174.515 30.8206 171.647 33.5608 171.647 37.4377C171.647 41.3062 174.515 44.0803 178.409 44.0803ZM178.409 42.0188C175.906 42.0188 174.023 40.2033 174.023 37.4377C174.023 34.6721 175.906 32.8821 178.409 32.8821C180.911 32.8821 182.769 34.6721 182.769 37.4377C182.769 40.2033 180.911 42.0188 178.409 42.0188ZM192.127 44.0803C195.579 44.0803 197.734 42.5872 197.734 40.2373C197.734 35.1896 189.505 37.6922 189.505 34.6297C189.505 33.6032 190.506 32.8397 192.568 32.8397C193.84 32.8397 195.138 33.1111 196.317 33.8662L197.318 32.0083C196.19 31.2702 194.281 30.8291 192.593 30.8291C189.259 30.8291 187.181 32.3985 187.181 34.723C187.181 39.8895 195.384 37.3699 195.384 40.2882C195.384 41.391 194.476 42.0527 192.296 42.0527C190.608 42.0527 188.843 41.4928 187.741 40.7039L186.757 42.5618C187.834 43.4186 189.963 44.0803 192.118 44.0803H192.127ZM207.244 41.4844C206.752 41.8746 206.09 42.0952 205.403 42.0952C204.105 42.0952 203.367 41.3147 203.367 39.9149V32.8821H207.091V30.9479H203.367V28.1059H201.017V30.9479H198.812V32.8821H201.017V40.0082C201.017 42.6296 202.51 44.0718 205.132 44.0718C206.184 44.0718 207.261 43.7749 207.974 43.1641L207.236 41.4759L207.244 41.4844Z" fill="white"/>
<path fill-rule="evenodd" clip-rule="evenodd" d="M32.8324 10.2311C32.3064 10.4092 32.9172 24.653 32.6033 26.2564C31.3732 26.5448 21.1676 26.2903 18.3511 26.2733C17.5366 26.2649 14.4911 26.3412 13.8294 26.1376L13.7785 10.0444C13.2525 10.1547 11.8612 10.9522 11.3946 11.2236C10.6056 11.6902 10.9365 12.81 10.9365 13.5396C10.9365 19.0454 10.682 48.2371 11.0977 48.8479L13.77 48.8309L13.7869 27.8937L32.51 27.97L32.5863 48.8394H35.1823C35.6149 48.1862 35.335 19.2745 35.335 13.7602C35.335 13.073 35.6743 11.8514 35.0635 11.3594C34.809 11.1558 33.1887 10.3159 32.8324 10.2396V10.2311Z" fill="white"/>
<path fill-rule="evenodd" clip-rule="evenodd" d="M21.9225 0.687162L21.9141 22.074L24.5015 22.1249L24.4591 0.619294L23.2799 0L21.9225 0.687162Z" fill="white"/>
<path fill-rule="evenodd" clip-rule="evenodd" d="M0.145465 48.7545L2.8517 48.763L2.84321 32.9668C2.86018 31.5161 2.94501 32.1608 2.56326 31.9827C2.27482 32.2287 1.07865 32.7292 0.501771 33.1279C-0.168424 33.586 0.128498 34.5956 0.128498 35.2658C0.128498 39.1851 -0.176908 45.3017 0.153948 48.7375L0.145465 48.7545Z" fill="white"/>
<path fill-rule="evenodd" clip-rule="evenodd" d="M46.16 48.7547C46.4994 45.2765 46.1855 39.1344 46.1855 35.1726C46.1855 32.0253 45.6086 33.5692 43.7507 31.9913C43.4029 32.161 43.4453 31.6435 43.4623 32.3222L43.4538 48.7717L46.1516 48.7632L46.16 48.7547Z" fill="white"/>
<path fill-rule="evenodd" clip-rule="evenodd" d="M21.8545 48.7715H24.5098V31.8555L21.9139 31.9064L21.8545 48.7715Z" fill="white"/>
</svg>
